<svg xmlns="http://www.w3.org/2000/svg" xmlns:xlink="http://www.w3.org/1999/xlink" width="2604" height="512"><defs><path id="a" d="M324.032 219.783v.119L99.259 329.3v134.73L1 512V377.123l-.151.073.055-109.35L1 267.8V62.342l.348-.22-.448-.218L99.227.046l224.89 110.178.052 109.626-.137-.067zm-112.156-54.798L99.26 109.96v109.931l112.617-54.907z"/><path id="d" d="M254.07 191.878l112.51 54.973"/><filter id="c" width="162.2%" height="227.3%" x="-31.1%" y="-58.2%" filterUnits="objectBoundingBox"><feMorphology in="SourceAlpha" operator="dilate" radius="1.5" result="shadowSpreadOuter1"/><feOffset dy="3" in="shadowSpreadOuter1" result="shadowOffsetOuter1"/><feMorphology in="SourceAlpha" radius="2" result="shadowInner"/><feOffset dy="3" in="shadowInner" result="shadowInner"/><feComposite in="shadowOffsetOuter1" in2="shadowInner" operator="out" result="shadowOffsetOuter1"/><feGaussianBlur in="shadowOffsetOuter1" result="shadowBlurOuter1" stdDeviation="10"/><feColorMatrix in="shadowBlurOuter1" values="0 0 0 0 0 0 0 0 0 0 0 0 0 0 0 0 0 0 0.5 0"/></filter><path id="f" d="M141.54 247.26v109.533"/><filter id="e" width="1692.5%" height="125.6%" x="-796.2%" filterUnits="objectBoundingBox"><feMorphology in="SourceAlpha" operator="dilate" radius=".5" result="shadowSpreadOuter1"/><feOffset dy="3" in="shadowSpreadOuter1" result="shadowOffsetOuter1"/><feMorphology in="SourceAlpha" radius="1" result="shadowInner"/><feOffset dy="3" in="shadowInner" result="shadowInner"/><feComposite in="shadowOffsetOuter1" in2="shadowInner" operator="out" result="shadowOffsetOuter1"/><feGaussianBlur in="shadowOffsetOuter1" result="shadowBlurOuter1" stdDeviation="4"/><feColorMatrix in="shadowBlurOuter1" values="0 0 0 0 0 0 0 0 0 0 0 0 0 0 0 0 0 0 0.198765851 0"/></filter><path id="h" d="M43.078 89.903l98.406 47.864"/><filter id="g" width="128.5%" height="158.5%" x="-14.2%" y="-23%" filterUnits="objectBoundingBox"><feMorphology in="SourceAlpha" operator="dilate" radius=".5" result="shadowSpreadOuter1"/><feOffset dy="3" in="shadowSpreadOuter1" result="shadowOffsetOuter1"/><feMorphology in="SourceAlpha" radius="1" result="shadowInner"/><feOffset dy="3" in="shadowInner" result="shadowInner"/><feComposite in="shadowOffsetOuter1" in2="shadowInner" operator="out" result="shadowOffsetOuter1"/><feGaussianBlur in="shadowOffsetOuter1" result="shadowBlurOuter1" stdDeviation="4"/><feColorMatrix in="shadowBlurOuter1" values="0 0 0 0 0 0 0 0 0 0 0 0 0 0 0 0 0 0 0.198765851 0"/></filter></defs><g fill="none" fill-rule="evenodd"><mask id="b" fill="#fff"><use xlink:href="#a"/></mask><use fill="#A0A0A1" xlink:href="#a"/><g mask="url(#b)"><path fill="#552DC8" d="M.172 377.653l323.422-157.41-.002-109.827L.169 268.104z"/><g stroke-linecap="square" transform="translate(-43 -27)"><use fill="#000" filter="url(#c)" xlink:href="#d"/><use stroke="#979797" stroke-opacity="0" xlink:href="#d"/></g><g stroke-linecap="square" transform="translate(-43 -27)"><use fill="#000" filter="url(#e)" xlink:href="#f"/><use stroke="#979797" stroke-opacity="0" xlink:href="#f"/></g><path fill="#6E3BFF" d="M98.541.487v464.005L.078 512.498V62.508z"/><g stroke-linecap="square" transform="translate(-43 -27)"><use fill="#000" filter="url(#g)" xlink:href="#h"/><use stroke="#979797" stroke-opacity="0" xlink:href="#h"/></g><path fill="#8C64FF" d="M98.65.107l225.057 110.26-.005 109.824L.194 62.13z"/></g><path fill="#552DC8" d="M686.59 365.031c-12.531 0-23.979-2.314-34.343-6.943-10.364-4.629-19.06-11.748-26.087-21.358h-2.108c1.406 11.25 2.108 21.914 2.108 31.993V448H597V168.86h23.715l4.04 26.367h1.405c7.496-10.547 16.22-18.164 26.175-22.852 9.954-4.688 21.372-7.031 34.254-7.031 25.53 0 45.234 8.73 59.112 26.191s20.816 41.953 20.816 73.477c0 31.64-7.056 56.22-21.167 73.74-14.112 17.52-33.699 26.28-58.76 26.28zm-4.217-174.902c-19.674 0-33.903 5.45-42.686 16.348-8.784 10.898-13.292 28.242-13.527 52.03v6.505c0 27.07 4.51 46.435 13.527 58.095 9.017 11.66 23.48 17.49 43.39 17.49 16.629 0 29.657-6.738 39.085-20.214 9.427-13.477 14.14-32.05 14.14-55.723 0-24.023-4.713-42.451-14.14-55.283-9.428-12.832-22.69-19.248-39.789-19.248zm257.37 171.387l-5.797-27.422h-1.405c-9.603 12.07-19.177 20.244-28.721 24.521-9.545 4.278-21.46 6.416-35.748 6.416-19.09 0-34.05-4.922-44.883-14.765-10.833-9.844-16.249-23.848-16.249-42.012 0-38.907 31.093-59.297 93.278-61.172l32.674-1.055v-11.953c0-15.117-3.25-26.279-9.75-33.486-6.499-7.207-16.892-10.81-31.18-10.81-16.044 0-34.196 4.921-54.456 14.765l-8.96-22.324c9.487-5.157 19.88-9.2 31.182-12.13 11.3-2.929 22.631-4.394 33.99-4.394 22.955 0 39.965 5.098 51.032 15.293 11.067 10.196 16.6 26.543 16.6 49.043v131.485h-21.607zm-65.874-20.567c18.152 0 32.41-4.98 42.774-14.941 10.364-9.961 15.547-23.906 15.547-41.836V266.77L903.03 268c-23.189.82-39.906 4.424-50.153 10.81-10.248 6.387-15.371 16.319-15.371 29.795 0 10.547 3.191 18.575 9.574 24.082 6.382 5.508 15.312 8.262 26.789 8.262zm309.015-172.09v18.457l-35.66 4.22c3.279 4.1 6.207 9.462 8.783 16.083 2.577 6.621 3.865 14.092 3.865 22.412 0 18.868-6.441 33.926-19.323 45.176-12.883 11.25-30.566 16.875-53.051 16.875-5.739 0-11.126-.469-16.162-1.406-12.413 6.562-18.62 14.824-18.62 24.785 0 5.273 2.166 9.17 6.5 11.69 4.333 2.519 11.769 3.779 22.309 3.779h34.08c20.845 0 36.86 4.394 48.044 13.183 11.184 8.79 16.776 21.563 16.776 38.32 0 21.329-8.55 37.588-25.648 48.78-17.098 11.191-42.042 16.787-74.833 16.787-25.179 0-44.59-4.687-58.233-14.063-13.644-9.375-20.465-22.617-20.465-39.726 0-11.719 3.747-21.855 11.242-30.41 7.495-8.555 18.035-14.356 31.62-17.403-4.918-2.226-9.047-5.683-12.384-10.37-3.338-4.688-5.007-10.137-5.007-16.348 0-7.032 1.874-13.184 5.622-18.457 3.747-5.274 9.661-10.371 17.742-15.293-9.955-4.102-18.064-11.074-24.33-20.918-6.265-9.844-9.398-21.094-9.398-33.75 0-21.094 6.324-37.354 18.972-48.78 12.648-11.425 30.566-17.138 53.754-17.138 10.071 0 19.147 1.172 27.228 3.515h66.577zm-153.532 225c0 10.43 4.392 18.34 13.175 23.73 8.784 5.391 21.373 8.087 37.768 8.087 24.476 0 42.6-3.662 54.369-10.987 11.77-7.324 17.654-17.255 17.654-29.794 0-10.43-3.22-17.666-9.661-21.71-6.442-4.042-18.562-6.064-36.363-6.064h-34.958c-13.233 0-23.539 3.164-30.917 9.492-7.378 6.328-11.067 15.41-11.067 27.246zm15.81-163.3c0 13.476 3.806 23.671 11.418 30.586 7.613 6.914 18.211 10.37 31.796 10.37 28.458 0 42.687-13.827 42.687-41.484 0-28.945-14.405-43.418-43.214-43.418-13.702 0-24.242 3.692-31.62 11.075-7.378 7.382-11.067 18.34-11.067 32.87zm262.464 134.472c-28.458 0-50.913-8.672-67.368-26.015-16.454-17.344-24.68-41.426-24.68-72.246 0-31.055 7.64-55.723 22.924-74.004 15.283-18.282 35.806-27.422 61.57-27.422 24.125 0 43.214 7.94 57.268 23.818 14.053 15.88 21.08 36.826 21.08 62.842v18.457h-132.628c.585 22.617 6.295 39.785 17.127 51.504 10.833 11.719 26.087 17.578 45.761 17.578 20.729 0 41.223-4.336 61.483-13.008v26.016c-10.306 4.453-20.055 7.646-29.248 9.58-9.193 1.933-20.29 2.9-33.289 2.9zm-7.905-175.254c-15.458 0-27.784 5.04-36.977 15.118-9.194 10.078-14.61 24.023-16.25 41.835h100.657c0-18.398-4.099-32.49-12.297-42.275-8.197-9.785-19.908-14.678-35.133-14.678zm256.492 119.18c0 17.93-6.676 31.758-20.026 41.484-13.35 9.727-32.088 14.59-56.213 14.59-25.53 0-45.439-4.043-59.727-12.129v-27.07c9.252 4.688 19.177 8.379 29.776 11.074 10.598 2.696 20.816 4.043 30.653 4.043 15.225 0 26.936-2.431 35.134-7.295 8.197-4.863 12.296-12.275 12.296-22.236 0-7.5-3.25-13.916-9.75-19.248-6.499-5.332-19.176-11.63-38.03-18.897-17.919-6.68-30.655-12.51-38.208-17.49-7.554-4.98-13.175-10.635-16.864-16.963-3.689-6.328-5.534-13.886-5.534-22.675 0-15.704 6.383-28.096 19.148-37.178 12.765-9.082 30.273-13.623 52.524-13.623 20.729 0 40.989 4.218 60.78 12.656l-10.364 23.73c-19.323-7.968-36.831-11.953-52.524-11.953-13.82 0-24.242 2.168-31.268 6.504-7.027 4.336-10.54 10.313-10.54 17.93 0 5.156 1.317 9.55 3.952 13.184 2.635 3.632 6.88 7.09 12.736 10.37 5.855 3.282 17.098 8.028 33.728 14.239 22.836 8.32 38.265 16.7 46.288 25.137 8.022 8.437 12.033 19.043 12.033 31.816zm80.474 52.559h-29.16V168.859h29.16v192.657zm-31.62-244.864c0-6.68 1.64-11.572 4.919-14.677 3.279-3.106 7.378-4.659 12.297-4.659 4.684 0 8.724 1.582 12.12 4.746 3.397 3.165 5.095 8.028 5.095 14.59 0 6.563-1.698 11.455-5.095 14.678-3.396 3.223-7.436 4.834-12.12 4.834-4.92 0-9.018-1.611-12.297-4.834-3.28-3.223-4.919-8.115-4.919-14.678zm342.743 244.864V236.184c0-15.352-3.279-26.866-9.837-34.541-6.558-7.676-16.746-11.514-30.566-11.514-18.152 0-31.56 5.215-40.227 15.644-8.666 10.43-13 26.485-13 48.165v107.578h-29.16V236.184c0-15.352-3.279-26.866-9.837-34.541-6.558-7.676-16.805-11.514-30.742-11.514-18.269 0-31.649 5.478-40.14 16.435-8.49 10.958-12.735 28.916-12.735 53.877v101.075h-29.16V168.859h23.715l4.742 26.368h1.406c5.504-9.375 13.263-16.7 23.276-21.973 10.013-5.274 21.226-7.91 33.64-7.91 30.097 0 49.771 10.898 59.023 32.695h1.405c5.739-10.078 14.054-18.047 24.945-23.906 10.891-5.86 23.305-8.79 37.241-8.79 21.783 0 38.09 5.596 48.923 16.788 10.833 11.191 16.249 29.092 16.249 53.701v125.684h-29.16zm182.712 3.515c-12.53 0-23.978-2.314-34.342-6.943-10.365-4.629-19.06-11.748-26.087-21.358h-2.108c1.406 11.25 2.108 21.914 2.108 31.993V448h-29.16V168.86h23.715l4.04 26.367h1.405c7.495-10.547 16.22-18.164 26.175-22.852 9.954-4.688 21.372-7.031 34.254-7.031 25.53 0 45.234 8.73 59.112 26.191 13.877 17.461 20.816 41.953 20.816 73.477 0 31.64-7.056 56.22-21.168 73.74-14.111 17.52-33.698 26.28-58.76 26.28zm-4.216-174.902c-19.674 0-33.903 5.45-42.686 16.348-8.784 10.898-13.292 28.242-13.527 52.03v6.505c0 27.07 4.51 46.435 13.527 58.095 9.017 11.66 23.48 17.49 43.389 17.49 16.63 0 29.658-6.738 39.086-20.214 9.427-13.477 14.14-32.05 14.14-55.723 0-24.023-4.713-42.451-14.14-55.283-9.428-12.832-22.69-19.248-39.789-19.248zm168.132 171.387h-29.16V88h29.16v273.516zm147.052 3.515c-28.458 0-50.914-8.672-67.368-26.015-16.454-17.344-24.681-41.426-24.681-72.246 0-31.055 7.641-55.723 22.924-74.004 15.283-18.282 35.807-27.422 61.571-27.422 24.125 0 43.214 7.94 57.267 23.818 14.053 15.88 21.08 36.826 21.08 62.842v18.457h-132.628c.586 22.617 6.295 39.785 17.128 51.504 10.833 11.719 26.086 17.578 45.76 17.578 20.73 0 41.223-4.336 61.484-13.008v26.016c-10.306 4.453-20.055 7.646-29.249 9.58-9.193 1.933-20.289 2.9-33.288 2.9zm-7.905-175.254c-15.459 0-27.785 5.04-36.978 15.118-9.193 10.078-14.61 24.023-16.249 41.835h100.656c0-18.398-4.098-32.49-12.296-42.275-8.198-9.785-19.909-14.678-35.133-14.678zm128.08 153.106c0-7.852 1.786-13.799 5.357-17.842 3.572-4.043 8.696-6.064 15.371-6.064 6.793 0 12.092 2.021 15.898 6.064 3.806 4.043 5.709 9.99 5.709 17.842 0 7.617-1.932 13.476-5.797 17.578-3.865 4.102-9.135 6.152-15.81 6.152-5.973 0-10.92-1.845-14.844-5.537-3.923-3.691-5.884-9.756-5.884-18.193z"/></g></svg>